<?xml version="1.0" encoding="utf-8" ?><svg xmlns="http://www.w3.org/2000/svg" xmlns:xlink="http://www.w3.org/1999/xlink" width="1024" height="1024" viewBox="0 0 1024 1024"><path fill="#4B3F39" transform="scale(2 2)" d="M365.919 56.1012C372.079 55.2791 377.924 59.5457 381.11 64.4319C384.332 69.3752 386.683 69.0761 391.786 71.1594C417.291 81.7186 416.444 97.9571 437.595 111.053C450.798 119.227 441.306 136.783 432.965 143.126C415.183 159.843 397.5 146.457 386.297 152.768C372.467 167.646 379.926 192.632 383.068 209.572C389.629 244.94 377.613 273.508 359.671 302.564C367.698 314.955 375.636 331.118 362.615 342.156C365.068 350.662 366.549 361.496 370.427 369.512C373.832 374.526 380.2 373.142 385.451 373.302C401.769 373.799 407.077 393.642 398.273 393.871C346.889 393.805 358.395 400.908 326.629 354.322C318.325 365.956 314.971 375.127 303.329 386.243C301.007 388.46 298.598 390.413 296.369 392.748C305.331 392.144 316.532 394.793 323.237 401.191C325.84 403.675 328.204 410.074 324.32 412.454C314.681 418.361 253.061 413.458 242.042 411.123C220.683 406.596 234.034 398.474 206.066 406.322C188.063 411.374 162.488 403.118 143.439 400.996C135.124 400.746 125.538 400.52 117.894 404.386C128.658 417.049 165.373 424.645 181.417 429.576C190.104 432.245 213.799 441.166 193.795 448.718C167.473 458.656 131.76 454.501 106.467 443.02C88.7648 434.986 60.73 416.318 71.4662 393.256C74.5384 386.657 80.954 381.665 87.317 378.45C125.213 359.303 159.077 384.4 195.826 371.045C180.466 324.467 200.256 269.839 240.319 242.15C252.954 233.419 265.084 230.393 276.649 219.242C293.52 202.976 299.741 182.363 299.826 159.338C299.844 154.475 298.892 149.747 299.348 144.872C300.787 130.012 306.47 112.109 314.965 99.7889C311.143 85.4805 314.117 68.798 331.673 66.7896C336.876 66.1942 340.024 67.6212 344.981 69.2366C347.594 67.8344 349.591 67.2501 352.484 66.6997C355.056 60.7138 359.303 56.8249 365.919 56.1012ZM286.923 392.748C289.081 391.415 293.736 388.525 295.331 386.699L294.987 386.438C294.589 386.859 294.812 386.707 294.339 386.92L294.016 386.156L292.954 386.04C292.218 385.036 291.157 382.216 291.107 380.983C290.233 384.356 288.654 389.826 286.923 392.748Z"/><path fill="#FB9D1D" transform="scale(2 2)" d="M317.543 105.272C319.82 109.117 319.003 111.82 319.937 115.782C323.238 129.787 330.529 138.229 342.039 145.878C335.007 160.31 331.817 178.286 335.421 194.059C334.165 195.911 334.346 207.959 333.954 211.118C331.782 228.609 322.76 243.353 309.056 254.267C306.81 256.056 303.12 257.77 301.499 260.098C276.683 272.445 253.703 290.905 247.629 319.323C243.412 319.864 231.707 322.571 231.066 327.612L231.268 328.189C214.684 354.334 223.032 375.152 219.997 380.983C218.244 375.778 216.02 369.839 214.646 364.614C202.485 317.897 225.186 272.173 267.848 250.42C284.081 242.142 300.157 230.764 307.458 213.338C321.691 179.369 287.923 156.631 317.543 105.272Z"/><path fill="#FECC38" transform="scale(2 2)" d="M350.411 72.1911C365.954 68.6217 385.29 71.8928 398.893 80.4542C409.735 87.2783 413.282 94.9164 420.533 104.402C425.581 109.508 427.839 109.706 432.497 113.461C418.605 119.166 422.532 129.051 434.996 133.353C426.95 144.826 411.043 150.711 397.784 145.878C399.556 144.755 401.297 143.649 403.105 142.582L402.198 141.741C392.909 147.227 385.781 148.062 374.682 147.965C376.454 146.394 377.303 145.874 379.292 144.598L378.635 143.489C376.462 144.772 374.636 146.301 372.756 147.965C350.508 148.599 329.269 136.146 324.575 113.461C324.228 111.01 324.445 110.62 325.58 108.515C313.982 96.0015 316.013 68.8103 336.534 72.1446C344.037 73.3637 350.281 78.4802 354.765 84.3864C356.03 83.7311 357.495 83.0212 358.695 82.284C357.206 78.3473 353.411 75.0729 350.411 72.1911Z"/><path fill="#FDF6E0" transform="scale(2 2)" d="M420.533 104.402C425.581 109.508 427.839 109.706 432.497 113.461C418.605 119.166 422.532 129.051 434.996 133.353C426.95 144.826 411.043 150.711 397.784 145.878C399.556 144.755 401.297 143.649 403.105 142.582L402.198 141.741C392.909 147.227 385.781 148.062 374.682 147.965C376.454 146.394 377.303 145.874 379.292 144.598L378.635 143.489C376.462 144.772 374.636 146.301 372.756 147.965C350.508 148.599 329.269 136.146 324.575 113.461C358.259 103.016 371.379 122.02 392.56 117.178C401.416 115.153 411.745 108.434 420.533 104.402Z"/><path fill="#010100" transform="scale(2 2)" d="M378.635 143.489C384.224 140.158 407.047 129.883 412.304 135.374L412.124 135.599C400.331 134.807 389.093 137.588 379.292 144.598L378.635 143.489Z"/><path fill="#010100" transform="scale(2 2)" d="M402.198 141.741C406.212 139.623 408.196 138.555 412.676 137.849C410.622 139.26 406.033 140.893 403.105 142.582L402.198 141.741Z"/><path fill="#010100" transform="scale(2 2)" d="M384.74 128.225C392.008 127.649 406.068 128.293 412.224 131.809L412.168 132.014C408.866 131.83 401.958 129.819 397.784 129.254C384.6 129.028 379.451 130.116 367.409 133.353C371.385 130.055 379.5 128.94 384.74 128.225Z"/><path fill="#4B3F39" transform="scale(2 2)" d="M325.58 108.515C313.982 96.0015 316.013 68.8103 336.534 72.1446C344.037 73.3637 350.281 78.4802 354.765 84.3864C352.903 85.6879 351.268 86.588 349.296 87.6916C344.14 90.9486 333.032 98.7838 329.762 103.592C327.682 105.587 327.259 106.209 325.58 108.515Z"/><path fill="#EE8FBC" transform="scale(2 2)" d="M325.58 108.515C313.982 96.0015 316.013 68.8103 336.534 72.1446C344.037 73.3637 350.281 78.4802 354.765 84.3864C352.903 85.6879 351.268 86.588 349.296 87.6916C336.804 61.4986 311.467 84.3838 329.762 103.592C327.682 105.587 327.259 106.209 325.58 108.515Z"/><path fill="#4B3F39" transform="scale(2 2)" d="M378.858 99.7758C381.665 96.9248 386.142 96.5746 389.357 98.9547C392.573 101.335 393.546 105.719 391.639 109.236C389.732 112.753 385.527 114.329 381.778 112.933C378.029 111.537 375.88 107.594 376.738 103.686C377.062 102.209 377.797 100.854 378.858 99.7758Z"/><path fill="#FDF6E0" transform="scale(2 2)" d="M378.858 99.7758C383.968 100.479 380.924 107.298 376.738 103.686C377.062 102.209 377.797 100.854 378.858 99.7758Z"/><path fill="#FECC38" transform="scale(2 2)" d="M231.268 328.189C237.376 323.782 245.804 323.368 252.943 324.501C285.79 329.711 298.436 375.581 275.041 399.969C289.306 399.182 306.695 393.928 318.9 404.487C327.395 411.837 307.923 409.591 305.25 409.819C286.551 409.935 267.492 409.778 248.987 406.934C244.368 406.223 239.696 404.762 235.075 404.386C232.577 400.263 229.364 396.567 226.655 392.49C224.291 388.933 222.567 383.964 219.997 380.983C223.032 375.152 214.684 354.334 231.268 328.189Z"/><path fill="#FDF6E0" transform="scale(2 2)" d="M301.499 260.098C301.572 265.747 303.313 271.151 303.511 276.699C301.009 284.393 299.163 297.292 306.392 302.933C314.682 309.402 325.218 317.534 334.57 322.333C326.51 343.111 312.938 374.047 295.331 386.699L294.987 386.438C294.589 386.859 294.812 386.707 294.339 386.92L294.016 386.156L292.954 386.04C292.218 385.036 291.157 382.216 291.107 380.983C295.612 352.444 279.597 317.987 247.629 319.323C253.703 290.905 276.683 272.445 301.499 260.098Z"/><path fill="#FDF6E0" transform="scale(2 2)" d="M342.039 145.878C354.625 152.474 366.027 153.188 379.926 152.768C364.321 179.729 378.945 198.83 379.395 226.224C379.815 251.805 370.166 276.586 356.38 297.777C340.051 276.718 353.673 285.369 349.296 267.711C349.23 267.476 350.264 260.284 350.45 259.216C354.734 234.658 341.775 216.622 335.421 194.059C331.817 178.286 335.007 160.31 342.039 145.878Z"/><path fill="#FECC38" transform="scale(2 2)" d="M335.421 194.059C341.775 216.622 354.734 234.658 350.45 259.216C350.264 260.284 349.23 267.476 349.296 267.711C346.514 270.72 346.014 276.235 344.368 279.924C341.4 286.579 343.807 290.188 347.862 295.369C353.577 302.794 369.846 325.793 362.015 335.584C351.072 349.264 344.204 322.407 338.399 318.738C330.514 313.754 322.609 308.288 314.933 303.016C301.47 293.769 307.079 286.471 303.511 276.699C303.313 271.151 301.572 265.747 301.499 260.098C303.12 257.77 306.81 256.056 309.056 254.267C322.76 243.353 331.782 228.609 333.954 211.118C334.346 207.959 334.165 195.911 335.421 194.059Z"/><path fill="#FB9D1D" transform="scale(2 2)" d="M101.165 394.115C105.242 393.076 110.09 395.781 113.322 398.047C111.121 403.45 112.309 406.932 117.127 410.742C139.955 428.788 182.65 430.242 195.826 442.094C193.253 442.477 188.911 442.198 186.188 442.094C158.249 441.442 126.755 437.131 103.438 420.463C92.5213 412.66 81.5494 395.307 101.165 394.115Z"/><defs><linearGradient id="gradient_0" gradientUnits="userSpaceOnUse" x1="332.31097" y1="362.53934" x2="391.4202" y2="354.01385"><stop offset="0" stop-color="#FEA923"/><stop offset="1" stop-color="#FFC428"/></linearGradient></defs><path fill="url(#gradient_0)" transform="scale(2 2)" d="M338.477 325.868C343.019 333.685 343.691 345.782 357.547 344.015C359.216 354.962 363.717 379.021 377.247 378.634C384.31 378.432 392.49 378.75 396.223 386.088C398.083 389.745 390.93 388.614 388.502 388.707C382.307 388.306 365.283 389.728 360.616 388.367C353.117 386.181 333.811 355.944 329.762 348.307C333.397 339.436 335.835 335.756 338.477 325.868Z"/><path fill="#FB9D1D" transform="scale(2 2)" d="M365.919 61.0549C371.438 60.5606 374.278 63.8188 377.341 67.7456C375.167 67.1836 373.006 66.518 370.812 65.9505C367.63 66.1351 362.262 65.8869 358.695 65.9505C360.729 62.701 362.094 61.7234 365.919 61.0549Z"/></svg>